<mxfile host="app.diagrams.net" agent="Mozilla/5.0 (Windows NT 10.0; Win64; x64) AppleWebKit/537.36 (KHTML, like Gecko) Chrome/134.0.0.0 Safari/537.36" version="26.1.1">
  <diagram name="Page-1" id="km5Bu-YFPCU-qMcmRtrV">
    <mxGraphModel dx="1050" dy="571" grid="1" gridSize="10" guides="1" tooltips="1" connect="1" arrows="1" fold="1" page="1" pageScale="1" pageWidth="827" pageHeight="1169" math="0" shadow="0">
      <root>
        <mxCell id="0" />
        <mxCell id="1" parent="0" />
        <mxCell id="qgqw8tRj-jzzc-NbbeqQ-1" value="" style="rounded=0;whiteSpace=wrap;html=1;" parent="1" vertex="1">
          <mxGeometry x="20" y="20" width="120" height="420" as="geometry" />
        </mxCell>
        <mxCell id="qgqw8tRj-jzzc-NbbeqQ-2" value="Source" style="rounded=0;whiteSpace=wrap;html=1;" parent="1" vertex="1">
          <mxGeometry x="20" y="20" width="120" height="30" as="geometry" />
        </mxCell>
        <mxCell id="qgqw8tRj-jzzc-NbbeqQ-3" value="" style="rounded=0;whiteSpace=wrap;html=1;" parent="1" vertex="1">
          <mxGeometry x="160" y="21" width="510" height="479" as="geometry" />
        </mxCell>
        <mxCell id="qgqw8tRj-jzzc-NbbeqQ-4" value="Data Warehouse" style="rounded=0;whiteSpace=wrap;html=1;" parent="1" vertex="1">
          <mxGeometry x="160" y="20" width="510" height="30" as="geometry" />
        </mxCell>
        <mxCell id="qgqw8tRj-jzzc-NbbeqQ-5" value="" style="rounded=0;whiteSpace=wrap;html=1;" parent="1" vertex="1">
          <mxGeometry x="680" y="20" width="120" height="400" as="geometry" />
        </mxCell>
        <mxCell id="qgqw8tRj-jzzc-NbbeqQ-6" value="Consume" style="rounded=0;whiteSpace=wrap;html=1;" parent="1" vertex="1">
          <mxGeometry x="680" y="20" width="120" height="40" as="geometry" />
        </mxCell>
        <mxCell id="-Gvv7bg2ypOTsdOj3XeG-1" value="CRM" style="image;aspect=fixed;html=1;points=[];align=center;fontSize=12;image=img/lib/azure2/general/Folder_Blank.svg;" vertex="1" parent="1">
          <mxGeometry x="46" y="60" width="69" height="56.00000000000001" as="geometry" />
        </mxCell>
        <mxCell id="-Gvv7bg2ypOTsdOj3XeG-3" value="" style="image;aspect=fixed;html=1;points=[];align=center;fontSize=12;image=img/lib/azure2/general/File.svg;" vertex="1" parent="1">
          <mxGeometry x="94" y="98" width="17.86" height="22" as="geometry" />
        </mxCell>
        <mxCell id="-Gvv7bg2ypOTsdOj3XeG-4" value="ERP" style="image;aspect=fixed;html=1;points=[];align=center;fontSize=12;image=img/lib/azure2/general/Folder_Blank.svg;" vertex="1" parent="1">
          <mxGeometry x="46" y="178" width="69" height="56.00000000000001" as="geometry" />
        </mxCell>
        <mxCell id="-Gvv7bg2ypOTsdOj3XeG-5" value="" style="image;aspect=fixed;html=1;points=[];align=center;fontSize=12;image=img/lib/azure2/general/File.svg;" vertex="1" parent="1">
          <mxGeometry x="94" y="206" width="24.35" height="30" as="geometry" />
        </mxCell>
        <mxCell id="-Gvv7bg2ypOTsdOj3XeG-9" value="" style="endArrow=none;html=1;rounded=0;" edge="1" parent="1">
          <mxGeometry width="50" height="50" relative="1" as="geometry">
            <mxPoint x="26" y="261" as="sourcePoint" />
            <mxPoint x="126" y="261" as="targetPoint" />
          </mxGeometry>
        </mxCell>
        <mxCell id="-Gvv7bg2ypOTsdOj3XeG-10" value="Object&lt;div&gt;Type : CSV&lt;br&gt;&lt;br&gt;Interface :&amp;nbsp;&lt;br&gt;Files in Folder&lt;/div&gt;" style="text;html=1;align=center;verticalAlign=middle;whiteSpace=wrap;rounded=0;" vertex="1" parent="1">
          <mxGeometry x="51" y="296" width="60" height="64" as="geometry" />
        </mxCell>
        <mxCell id="-Gvv7bg2ypOTsdOj3XeG-12" value="" style="rounded=0;whiteSpace=wrap;html=1;" vertex="1" parent="1">
          <mxGeometry x="170" y="54" width="150" height="436" as="geometry" />
        </mxCell>
        <mxCell id="-Gvv7bg2ypOTsdOj3XeG-13" value="" style="rounded=0;whiteSpace=wrap;html=1;" vertex="1" parent="1">
          <mxGeometry x="331" y="53" width="150" height="437" as="geometry" />
        </mxCell>
        <mxCell id="-Gvv7bg2ypOTsdOj3XeG-14" value="" style="rounded=0;whiteSpace=wrap;html=1;" vertex="1" parent="1">
          <mxGeometry x="495" y="53" width="150" height="437" as="geometry" />
        </mxCell>
      </root>
    </mxGraphModel>
  </diagram>
</mxfile>
